<svg width="256" height="256" viewBox="0 0 256 256" xmlns="http://www.w3.org/2000/svg" role="img" aria-label="Foldera logo">
  <defs>
    <linearGradient id="g1" x1="0%" y1="0%" x2="100%" y2="0%">
      <stop offset="0%" stop-color="#a21caf"/>
      <stop offset="50%" stop-color="#6d28d9"/>
      <stop offset="100%" stop-color="#06b6d4"/>
    </linearGradient>
    <filter id="glow" x="-50%" y="-50%" width="200%" height="200%">
      <feGaussianBlur stdDeviation="8" result="coloredBlur"/>
      <feMerge>
        <feMergeNode in="coloredBlur"/>
        <feMergeNode in="SourceGraphic"/>
      </feMerge>
    </filter>
  </defs>
  <rect width="256" height="256" fill="#0a0a0f"/>
  <g filter="url(#glow)">
    <path d="M40 76a12 12 0 0 1 12-12h64l20 20h68a12 12 0 0 1 12 12v80a12 12 0 0 1-12 12H52a12 12 0 0 1-12-12Z" fill="url(#g1)" opacity=".15"/>
    <path d="M52 196a8 8 0 0 1-8-8V76a8 8 0 0 1 8-8h62l22 22h68a8 8 0 0 1 8 8v90a8 8 0 0 1-8 8Z" fill="none" stroke="url(#g1)" stroke-width="8" stroke-linejoin="round"/>
  </g>
</svg>


