<svg xmlns="http://www.w3.org/2000/svg" viewBox="0 0 24 24" role="img" aria-label="GitHub"><path fill="#fff" d="M12 1.5A10.5 10.5 0 0 0 8.68 22a.55.55 0 0 0 .73-.53v-1.85c-2.92.63-3.54-1.4-3.54-1.4-.48-1.22-1.17-1.55-1.17-1.55-.96-.65.07-.64.07-.64 1.06.08 1.62 1.09 1.62 1.09.94 1.62 2.47 1.15 3.07.88.1-.68.37-1.15.67-1.41-2.33-.27-4.78-1.17-4.78-5.18 0-1.15.41-2.08 1.08-2.82-.11-.27-.47-1.34.1-2.79 0 0 .88-.28 2.88 1.07a10 10 0 0 1 5.24 0c2-1.35 2.88-1.07 2.88-1.07.57 1.45.21 2.52.1 2.79.67.74 1.08 1.67 1.08 2.82 0 4.02-2.46 4.9-4.8 5.16.38.33.71.97.71 1.96v2.9c0 .29.19.62.74.52A10.5 10.5 0 0 0 12 1.5z"/></svg>
