<svg xmlns="http://www.w3.org/2000/svg" viewBox="0 0 24 24" role="img" aria-label="Gmail"><path d="M3.5 19h2.7V11.2L12 15.4l5.8-4.2V19h2.7a1 1 0 0 0 1-1V6.6a1.6 1.6 0 0 0-2.57-1.27L12 10.2 4.07 5.33A1.6 1.6 0 0 0 1.5 6.6V18a1 1 0 0 0 1 1z" fill="#fff"/><path d="M6.2 19v-7.8L3.5 9.1V18a1 1 0 0 0 1 1z" fill="#34A853"/><path d="M17.8 19h2.7a1 1 0 0 0 1-1V9.1l-3.7 2.1z" fill="#4285F4"/><path d="M6.2 11.2 3.5 9.1V6.6a1.6 1.6 0 0 1 2.57-1.27L6.2 5.4z" fill="#C5221F"/><path d="M17.8 11.2l3.7-2.1V6.6a1.6 1.6 0 0 0-2.57-1.27L17.8 5.4z" fill="#FBBC04"/><path d="M6.2 5.4 12 9.7l5.8-4.3v5.8L12 15.4 6.2 11.2z" fill="#EA4335"/></svg>
