<svg xmlns="http://www.w3.org/2000/svg" viewBox="0 0 24 24" role="img" aria-label="Google Drive"><path d="M8.4 3.5 1.6 15.3l3.4 5.9 6.8-11.8z" fill="#0066DA"/><path d="M15.6 3.5H8.4l3.4 5.9h7.2z" fill="#00AC47" opacity="0"/><path d="M8.4 3.5h7.2l6.8 11.8h-7.2z" fill="#FFBA00" opacity="0"/><path d="M15.6 3.5H8.4l3.4 5.9 3.4-5.9z" fill="#00AC47"/><path d="M22.4 15.3 15.6 3.5l-3.4 5.9 6.8 5.9z" fill="#EA4335" opacity="0"/><path d="M19 21.2 22.4 15.3H8.8l-3.4 5.9z" fill="#2684FC"/><path d="M22.4 15.3 15.6 3.5l-3.4 5.9 3.8 5.9z" fill="#FFBA00"/><path d="M11.8 9.4 8.4 3.5h7.2z" fill="#00AC47"/><path d="M15.6 15.3h6.8L15.6 3.5l-3.4 5.9z" fill="#EA4335"/></svg>
