<svg xmlns="http://www.w3.org/2000/svg" viewBox="0 0 24 24" role="img" aria-label="Google Calendar"><path d="M16.5 16.5h-9v-9h9z" fill="#fff"/><path d="M16.5 21 21 16.5h-4.5z" fill="#EA4335"/><path d="M21 7.5h-4.5V3H19.5A1.5 1.5 0 0 1 21 4.5z" fill="#FBBC04"/><path d="M16.5 16.5V21H4.5A1.5 1.5 0 0 1 3 19.5V16.5z" fill="#34A853"/><path d="M3 16.5v-9h4.5v9z" fill="#188038"/><path d="M3 7.5v-3A1.5 1.5 0 0 1 4.5 3H7.5v4.5z" fill="#1967D2"/><path d="M7.5 7.5V3h9v4.5z" fill="#4285F4"/><path d="M16.5 7.5H21v9h-4.5z" fill="#FBBC04" opacity="0"/><text x="12" y="14.2" font-family="Arial,Helvetica,sans-serif" font-size="6" font-weight="700" fill="#4285F4" text-anchor="middle">31</text></svg>
