<svg xmlns="http://www.w3.org/2000/svg" viewBox="0 0 24 24" role="img" aria-label="Linear"><rect width="24" height="24" rx="5" fill="#5E6AD2"/><path d="M4.6 13.07a.4.4 0 0 1 .68-.2l5.85 5.85a.4.4 0 0 1-.2.68 7.6 7.6 0 0 1-6.33-6.33zM4.5 10.6a.4.4 0 0 0 .12.32l8.46 8.46a.4.4 0 0 0 .32.12c.4-.05.8-.13 1.18-.24a.4.4 0 0 0 .18-.67L5.4 9.24a.4.4 0 0 0-.67.18c-.11.38-.19.78-.24 1.18zM6.1 7.05a.4.4 0 0 0-.04.52l10.37 10.37a.4.4 0 0 0 .52-.04c.27-.27.52-.55.75-.85a.4.4 0 0 0-.04-.53L7.48 6.34a.4.4 0 0 0-.53-.04c-.3.23-.58.48-.85.75zM9.04 5.1a.4.4 0 0 0-.16.66l9.36 9.36a.4.4 0 0 0 .66-.16 7.6 7.6 0 0 0-9.86-9.86z" fill="#fff"/></svg>
