<svg xmlns="http://www.w3.org/2000/svg" viewBox="0 0 24 24" role="img" aria-label="Notion"><rect width="24" height="24" rx="5" fill="#fff"/><path d="M6.02 6.2c.38.31.53.29 1.25.24l6.78-.41c.14 0 .02-.14-.03-.16l-1.13-.81c-.22-.17-.5-.36-1.06-.31l-6.56.48c-.24.02-.29.14-.19.24zM6.43 7.8v7.13c0 .38.19.53.62.5l7.45-.43c.43-.02.48-.29.48-.6V7.32c0-.31-.12-.48-.39-.46l-7.79.45c-.29.02-.38.17-.38.48zm7.35.38c.05.22 0 .43-.22.46l-.36.07v5.27c-.31.17-.6.26-.84.26-.38 0-.48-.12-.77-.48l-2.35-3.69v3.57l.74.17s0 .43-.6.43l-1.64.1c-.05-.1 0-.34.17-.39l.43-.12V9.4l-.6-.05c-.05-.22.12-.53.46-.55l1.76-.12 2.42 3.7V9.1l-.62-.07c-.05-.27.14-.46.38-.48zM4.7 4.2 11.5 3.7c.84-.07 1.06-.02 1.59.36l2.16 1.52c.36.26.48.34.48.62v10.6c0 .53-.19.84-.86.89l-7.88.48c-.5.02-.74-.05-1.01-.39l-1.59-2.06c-.29-.39-.41-.67-.41-1.01V5.18c0-.43.19-.79.65-.98z" fill="#000"/></svg>
