<svg xmlns="http://www.w3.org/2000/svg" viewBox="0 0 24 24" role="img" aria-label="Microsoft Outlook"><path d="M21.5 6.5H12v5l1.5 1 8-5.2V7a.5.5 0 0 0-.5-.5z" fill="#0A2767" opacity="0"/><path d="M22 7.2v9.6a.6.6 0 0 1-.6.6H12V6.6h9.4a.6.6 0 0 1 .6.6z" fill="#0364B8"/><path d="M22 7.4 13 13l-1-.7V6.6h9.4a.6.6 0 0 1 .6.8z" fill="#0078D4"/><path d="M12 6.6h9.4a.6.6 0 0 1 .6.6v.2L12.6 13 12 12.6z" fill="#28A8EA"/><path d="M12 11.5 13.7 13 12 14.2z" fill="#0364B8"/><rect x="2" y="5.5" width="11" height="13" rx="1.3" fill="#0A2767"/><rect x="2" y="5.5" width="11" height="13" rx="1.3" fill="#1490DF"/><ellipse cx="7.5" cy="12" rx="3" ry="3.3" fill="#fff"/><ellipse cx="7.5" cy="12" rx="1.5" ry="1.8" fill="#1490DF"/></svg>
