<svg xmlns="http://www.w3.org/2000/svg" viewBox="0 0 24 24" role="img" aria-label="Slack"><path d="M6.4 15.1a2.05 2.05 0 1 1-2-2.5h2zm1.03 0a2.05 2.05 0 0 1 4.1 0v5.13a2.05 2.05 0 1 1-4.1 0z" fill="#E01E5A"/><path d="M9.48 6.36a2.05 2.05 0 1 1 2.05-2.05v2.05zm0 1.04a2.05 2.05 0 0 1 0 4.1H4.35a2.05 2.05 0 0 1 0-4.1z" fill="#36C5F0"/><path d="M18.21 9.48a2.05 2.05 0 1 1 2.05 2.05h-2.05zm-1.03 0a2.05 2.05 0 0 1-4.1 0V4.35a2.05 2.05 0 1 1 4.1 0z" fill="#2EB67D"/><path d="M14.52 18.21a2.05 2.05 0 1 1-2.05 2.05v-2.05zm0-1.03a2.05 2.05 0 0 1 0-4.1h5.13a2.05 2.05 0 1 1 0 4.1z" fill="#ECB22E"/></svg>
